<?xml version="1.0" encoding="UTF-8" standalone="no"?>
<!-- Created with Inkscape (http://www.inkscape.org/) -->

<svg
   xmlns:dc="http://purl.org/dc/elements/1.1/"
   xmlns:cc="http://creativecommons.org/ns#"
   xmlns:rdf="http://www.w3.org/1999/02/22-rdf-syntax-ns#"
   xmlns:svg="http://www.w3.org/2000/svg"
   xmlns="http://www.w3.org/2000/svg"
   xmlns:sodipodi="http://sodipodi.sourceforge.net/DTD/sodipodi-0.dtd"
   xmlns:inkscape="http://www.inkscape.org/namespaces/inkscape"
   width="28.778385mm"
   height="49.685246mm"
   viewBox="0 0 28.778385 49.685246"
   version="1.1"
   id="svg6560"
   inkscape:version="0.92.4 (5da689c313, 2019-01-14)"
   sodipodi:docname="oshw earrings.svg">
  <defs
     id="defs6554" />
  <sodipodi:namedview
     id="base"
     pagecolor="#ffffff"
     bordercolor="#666666"
     borderopacity="1.0"
     inkscape:pageopacity="0.0"
     inkscape:pageshadow="2"
     inkscape:zoom="3.7504154"
     inkscape:cx="55.515597"
     inkscape:cy="93.893376"
     inkscape:document-units="mm"
     inkscape:current-layer="layer1"
     showgrid="false"
     fit-margin-top="0"
     fit-margin-left="0"
     fit-margin-right="0"
     fit-margin-bottom="0" />
  <metadata
     id="metadata6557">
    <rdf:RDF>
      <cc:Work
         rdf:about="">
        <dc:format>image/svg+xml</dc:format>
        <dc:type
           rdf:resource="http://purl.org/dc/dcmitype/StillImage" />
        <dc:title />
      </cc:Work>
    </rdf:RDF>
  </metadata>
  <g
     inkscape:label="Layer 1"
     inkscape:groupmode="layer"
     id="layer1"
     transform="translate(-97.27846,-64.396226)">
    <g
       id="g881">
      <path
         id="path5944"
         d="m 125.90044,76.777866 -3.53343,-0.65708 c -0.086,-0.0161 -0.18013,-0.0969 -0.20914,-0.17991 l -1.0831,-2.52686 c -0.0404,-0.078 -0.0327,-0.200541 0.0172,-0.27319 l 2.05872,-3.000601 c 0.0492,-0.0722 0.0396,-0.18205 -0.0226,-0.244169 l -2.57135,-2.57135 c -0.0621,-0.0622 -0.17174,-0.0722 -0.24396,-0.0226 l -3.05326,2.09526 c -0.0722,0.0496 -0.19603,0.0585 -0.27448,0.0197 l -2.44949,-1.00271 c -0.0832,-0.0275 -0.16422,-0.12058 -0.18055,-0.20677 l -0.68029,-3.65467 c -0.0159,-0.0862 -0.10081,-0.15669 -0.18851,-0.15669 h -3.63682 c -0.0875,0 -0.17239,0.0705 -0.18829,0.15669 l -0.68008,3.65467 c -0.0163,0.0862 -0.0971,0.17926 -0.18055,0.20677 l -2.4497,1.00271 c -0.0787,0.0387 -0.20248,0.0299 -0.27448,-0.0197 l -3.05304,-2.09526 c -0.0724,-0.0496 -0.18227,-0.0396 -0.24418,0.0226 l -2.57157,2.57136 c -0.0619,0.0621 -0.0722,0.17194 -0.0226,0.244159 l 2.05894,3.00061 c 0.0494,0.0726 0.0572,0.19516 0.017,0.27318 l -1.08332,2.52686 c -0.0288,0.083 -0.12273,0.1638 -0.20913,0.17991 l -3.53323,0.65708 c -0.0864,0.0163 -0.15669,0.10102 -0.15669,0.18872 l 2.1e-4,3.63661 c 0,0.0877 0.0705,0.17303 0.1567,0.188721 l 3.4466,0.64139 c 0.0862,0.0157 0.1784,0.0976 0.20462,0.18119 l 1.076,2.68786 c 0.0385,0.0789 0.0294,0.202259 -0.0204,0.27448 l -1.95769,2.85293 c -0.0494,0.0722 -0.0393,0.18227 0.0226,0.244389 l 2.57178,2.57136 c 0.0619,0.0617 0.17174,0.0718 0.24417,0.0226 l 2.80242,-1.92352 c 0.0722,-0.0495 0.19324,-0.0533 0.26868,-0.009 l 1.23592,0.65987 c 0.0782,0.04 0.16959,0.006 0.20312,-0.0748 l 2.54836,-6.15746 c 0.0337,-0.081 0,-0.18441 -0.0748,-0.230189 l -0.3093,-0.18937 c -0.0572,-0.0349 -0.13477,-0.0948 -0.1956,-0.14982 -1.11577,-0.714461 -1.85603,-1.96435 -1.85603,-3.3877 0,-2.22122 1.80079,-4.02178 4.02179,-4.02178 2.221,0 4.02157,1.80056 4.02157,4.02178 0,1.42335 -0.74005,2.67324 -1.85603,3.3877 -0.0604,0.055 -0.1382,0.115 -0.19516,0.14982 l -0.30931,0.18937 c -0.0744,0.0458 -0.10833,0.14917 -0.0748,0.23019 l 2.54814,6.15768 c 0.0335,0.0811 0.12467,0.11456 0.20312,0.0748 l 1.23592,-0.65987 c 0.0757,-0.044 0.19646,-0.0404 0.26868,0.009 l 2.80264,1.92351 c 0.0722,0.0492 0.18226,0.0392 0.24395,-0.0226 l 2.57179,-2.57136 c 0.0621,-0.0621 0.0722,-0.17217 0.0226,-0.24439 l -1.95791,-2.85292 c -0.0494,-0.0722 -0.0587,-0.1956 -0.0202,-0.27449 l 1.07601,-2.68785 c 0.0264,-0.0836 0.118,-0.16551 0.20441,-0.18119 l 3.4466,-0.64139 c 0.086,-0.0157 0.15669,-0.10102 0.15669,-0.18873 l 5.3e-4,-3.6366 c 2.1e-4,-0.0879 -0.0703,-0.1726 -0.15626,-0.18894"
         style="fill:none;stroke:#0000ff;stroke-width:0.1;stroke-miterlimit:4;stroke-dasharray:none"
         inkscape:connector-curvature="0" />
      <path
         inkscape:connector-curvature="0"
         id="path7138"
         d="m 111.66921,65.723855 a 0.75000001,0.75000001 0 0 0 -0.75034,0.75034 0.75000001,0.75000001 0 0 0 0.75034,0.74982 0.75000001,0.75000001 0 0 0 0.74982,-0.74982 0.75000001,0.75000001 0 0 0 -0.74982,-0.75034 z"
         style="opacity:1;vector-effect:none;fill:none;fill-opacity:1;stroke:#ff0000;stroke-width:0.1;stroke-linecap:butt;stroke-linejoin:miter;stroke-miterlimit:4;stroke-dasharray:none;stroke-dashoffset:0;stroke-opacity:1" />
    </g>
    <g
       id="g885">
      <path
         inkscape:connector-curvature="0"
         style="fill:none;stroke:#0000ff;stroke-width:0.1;stroke-miterlimit:4;stroke-dasharray:none"
         d="m 125.90044,100.55979 -3.53343,-0.657077 c -0.086,-0.0161 -0.18013,-0.0969 -0.20914,-0.17991 l -1.0831,-2.52686 c -0.0404,-0.078 -0.0327,-0.20054 0.0172,-0.27319 l 2.05872,-3.0006 c 0.0492,-0.0722 0.0396,-0.18205 -0.0226,-0.24417 l -2.57135,-2.57135 c -0.0621,-0.0622 -0.17174,-0.0722 -0.24396,-0.0226 l -3.05326,2.09526 c -0.0722,0.0496 -0.19603,0.0585 -0.27448,0.0197 l -2.44949,-1.00271 c -0.0832,-0.0275 -0.16422,-0.12058 -0.18055,-0.20677 l -0.68029,-3.65467 c -0.0159,-0.0862 -0.10081,-0.15669 -0.18851,-0.15669 h -3.63682 c -0.0875,0 -0.17239,0.0705 -0.18829,0.15669 l -0.68008,3.65467 c -0.0163,0.0862 -0.0971,0.17926 -0.18055,0.20677 l -2.4497,1.00271 c -0.0787,0.0387 -0.20248,0.0299 -0.27448,-0.0197 l -3.05304,-2.09526 c -0.0724,-0.0496 -0.18227,-0.0396 -0.24418,0.0226 l -2.57157,2.57136 c -0.0619,0.0621 -0.0722,0.17194 -0.0226,0.24416 l 2.05894,3.00061 c 0.0494,0.0726 0.0572,0.19516 0.017,0.27318 l -1.08332,2.52686 c -0.0288,0.083 -0.12273,0.1638 -0.20913,0.17991 l -3.53323,0.657077 c -0.0864,0.0163 -0.15669,0.10102 -0.15669,0.18872 l 2.1e-4,3.63661 c 0,0.0877 0.0705,0.17303 0.1567,0.18872 l 3.4466,0.64139 c 0.0862,0.0157 0.1784,0.0976 0.20462,0.18119 l 1.076,2.68786 c 0.0385,0.0789 0.0294,0.20226 -0.0204,0.27448 l -1.95769,2.85293 c -0.0494,0.0722 -0.0393,0.18227 0.0226,0.24439 l 2.57178,2.57136 c 0.0619,0.0617 0.17174,0.0718 0.24417,0.0226 l 2.80242,-1.92352 c 0.0722,-0.0495 0.19324,-0.0533 0.26868,-0.009 l 1.23592,0.65987 c 0.0782,0.04 0.16959,0.006 0.20312,-0.0748 l 2.54836,-6.15746 c 0.0337,-0.081 0,-0.18441 -0.0748,-0.23019 l -0.3093,-0.18937 c -0.0572,-0.0349 -0.13477,-0.0948 -0.1956,-0.14982 -1.11577,-0.71446 -1.85603,-1.96435 -1.85603,-3.3877 0,-2.22122 1.80079,-4.021777 4.02179,-4.021777 2.221,0 4.02157,1.800557 4.02157,4.021777 0,1.42335 -0.74005,2.67324 -1.85603,3.3877 -0.0604,0.055 -0.1382,0.115 -0.19516,0.14982 l -0.30931,0.18937 c -0.0744,0.0458 -0.10833,0.14917 -0.0748,0.23019 l 2.54814,6.15768 c 0.0335,0.0811 0.12467,0.11456 0.20312,0.0748 l 1.23592,-0.65987 c 0.0757,-0.044 0.19646,-0.0404 0.26868,0.009 l 2.80264,1.92351 c 0.0722,0.0492 0.18226,0.0392 0.24395,-0.0226 l 2.57179,-2.57136 c 0.0621,-0.0621 0.0722,-0.17217 0.0226,-0.24439 l -1.95791,-2.85292 c -0.0494,-0.0722 -0.0587,-0.1956 -0.0202,-0.27449 l 1.07601,-2.68785 c 0.0264,-0.0836 0.118,-0.16551 0.20441,-0.18119 l 3.4466,-0.64139 c 0.086,-0.0157 0.15669,-0.10102 0.15669,-0.18873 l 5.3e-4,-3.6366 c 2.1e-4,-0.0879 -0.0703,-0.1726 -0.15626,-0.18894"
         id="path7146" />
      <path
         style="opacity:1;vector-effect:none;fill:none;fill-opacity:1;stroke:#ff0000;stroke-width:0.1;stroke-linecap:butt;stroke-linejoin:miter;stroke-miterlimit:4;stroke-dasharray:none;stroke-dashoffset:0;stroke-opacity:1"
         d="m 111.66921,89.505783 a 0.75000001,0.75000001 0 0 0 -0.75034,0.75034 0.75000001,0.75000001 0 0 0 0.75034,0.74982 0.75000001,0.75000001 0 0 0 0.74982,-0.74982 0.75000001,0.75000001 0 0 0 -0.74982,-0.75034 z"
         id="path7148"
         inkscape:connector-curvature="0" />
    </g>
  </g>
</svg>
